<svg
 xmlns="http://www.w3.org/2000/svg"
 xmlns:xlink="http://www.w3.org/1999/xlink"
 width="73px" height="39px">
<path fill-rule="evenodd"  fill="#fff"
 d="M71.934,37.768 C71.828,38.016 71.682,38.231 71.494,38.416 C71.306,38.600 71.085,38.744 70.832,38.848 C70.578,38.952 70.304,39.004 70.011,39.004 C69.711,39.004 69.434,38.952 69.180,38.848 C68.926,38.744 68.704,38.599 68.512,38.413 C68.320,38.227 68.172,38.010 68.067,37.762 C67.961,37.515 67.909,37.248 67.909,36.962 C67.909,36.671 67.961,36.403 68.067,36.158 C68.172,35.912 68.318,35.697 68.506,35.513 C68.694,35.329 68.915,35.185 69.169,35.083 C69.422,34.981 69.699,34.930 70.000,34.930 C70.297,34.930 70.572,34.981 70.826,35.083 C71.080,35.185 71.301,35.329 71.491,35.513 C71.681,35.697 71.828,35.913 71.934,36.160 C72.039,36.408 72.091,36.677 72.091,36.967 C72.091,37.254 72.039,37.521 71.934,37.768 ZM71.099,36.456 C71.043,36.306 70.962,36.175 70.857,36.065 C70.752,35.956 70.627,35.872 70.482,35.814 C70.337,35.757 70.177,35.728 70.000,35.728 C69.763,35.728 69.556,35.779 69.377,35.881 C69.199,35.984 69.061,36.127 68.963,36.311 C68.865,36.495 68.816,36.712 68.816,36.962 C68.816,37.148 68.845,37.317 68.901,37.469 C68.957,37.622 69.037,37.753 69.141,37.863 C69.244,37.973 69.369,38.058 69.515,38.117 C69.662,38.177 69.823,38.206 70.000,38.206 C70.237,38.206 70.445,38.154 70.623,38.050 C70.802,37.946 70.940,37.800 71.037,37.612 C71.135,37.424 71.184,37.207 71.184,36.962 C71.184,36.775 71.156,36.607 71.099,36.456 ZM67.542,37.793 C67.542,38.009 67.489,38.203 67.382,38.376 C67.275,38.549 67.121,38.686 66.920,38.787 C66.718,38.887 66.477,38.938 66.195,38.938 L65.372,38.938 L65.175,38.938 L64.499,38.938 L64.499,34.997 L65.175,34.997 L65.372,34.997 L66.206,34.997 C66.462,34.997 66.679,35.043 66.858,35.136 C67.036,35.229 67.172,35.354 67.266,35.510 C67.360,35.666 67.407,35.839 67.407,36.029 C67.407,36.271 67.328,36.476 67.170,36.643 C67.102,36.716 67.017,36.777 66.920,36.830 C67.057,36.895 67.174,36.978 67.269,37.079 C67.451,37.272 67.542,37.510 67.542,37.793 ZM66.393,35.787 C66.302,35.714 66.184,35.678 66.037,35.678 L65.372,35.678 L65.372,36.554 L66.037,36.554 C66.184,36.554 66.302,36.518 66.393,36.445 C66.483,36.373 66.528,36.262 66.528,36.113 C66.528,35.968 66.483,35.859 66.393,35.787 ZM66.596,37.469 C66.550,37.391 66.487,37.330 66.407,37.285 C66.326,37.240 66.227,37.218 66.111,37.218 L65.372,37.218 L65.372,38.256 L66.111,38.256 C66.284,38.256 66.419,38.206 66.517,38.106 C66.614,38.005 66.663,37.883 66.663,37.737 C66.663,37.637 66.641,37.547 66.596,37.469 ZM62.879,38.223 L61.319,38.223 L61.054,38.938 L60.136,38.938 L61.714,34.997 L62.514,34.997 L64.076,38.938 L63.140,38.938 L62.879,38.223 ZM62.105,36.103 L61.584,37.508 L62.618,37.508 L62.105,36.103 ZM57.056,38.938 L56.081,38.938 L56.081,33.308 L57.345,33.308 L57.345,37.837 L59.866,37.837 L59.866,38.938 L57.345,38.938 L57.056,38.938 ZM52.515,38.938 L51.630,38.938 L51.630,37.297 L50.216,35.015 L50.216,35.761 L48.970,35.761 L48.970,38.938 L48.085,38.938 L48.085,35.761 L46.839,35.761 L46.839,34.997 L50.204,34.997 L50.216,34.997 L51.230,34.997 L52.079,36.436 L52.927,34.997 L53.930,34.997 L52.515,37.262 L52.515,38.938 ZM45.638,38.792 C45.390,38.930 45.103,38.999 44.776,38.999 C44.449,38.999 44.161,38.930 43.911,38.792 C43.661,38.655 43.465,38.464 43.324,38.220 C43.184,37.977 43.113,37.698 43.113,37.386 L43.113,34.997 L44.004,34.997 L44.004,37.436 C44.004,37.592 44.038,37.728 44.105,37.844 C44.173,37.959 44.266,38.047 44.384,38.109 C44.503,38.170 44.633,38.201 44.776,38.201 C44.926,38.201 45.058,38.170 45.171,38.109 C45.283,38.047 45.372,37.960 45.438,37.846 C45.504,37.733 45.537,37.598 45.537,37.442 L45.537,34.997 L46.428,34.997 L46.428,37.391 C46.428,37.704 46.358,37.981 46.219,38.223 C46.080,38.465 45.886,38.655 45.638,38.792 ZM41.601,38.223 L40.041,38.223 L39.776,38.938 L38.857,38.938 L40.436,34.997 L41.236,34.997 L42.797,38.938 L41.862,38.938 L41.601,38.223 ZM40.826,36.103 L40.306,37.508 L41.340,37.508 L40.826,36.103 ZM36.366,38.938 L35.689,38.938 L35.689,34.997 L36.366,34.997 L36.574,34.997 L38.519,34.997 L38.519,35.750 L36.574,35.750 L36.574,36.560 L38.350,36.560 L38.350,37.291 L36.574,37.291 L36.574,38.178 L38.547,38.178 L38.547,38.938 L36.574,38.938 L36.366,38.938 ZM35.040,37.303 C35.040,37.611 34.964,37.889 34.811,38.136 C34.658,38.383 34.438,38.579 34.150,38.722 C33.863,38.866 33.518,38.938 33.116,38.938 L31.940,38.938 L31.658,38.938 L30.692,38.938 L30.692,33.308 L31.658,33.308 L31.940,33.308 L33.132,33.308 C33.497,33.308 33.807,33.374 34.062,33.507 C34.317,33.640 34.511,33.818 34.646,34.041 C34.780,34.265 34.847,34.512 34.847,34.783 C34.847,35.129 34.734,35.421 34.509,35.660 C34.411,35.764 34.289,35.851 34.151,35.927 C34.346,36.020 34.514,36.138 34.650,36.282 C34.910,36.559 35.040,36.899 35.040,37.303 ZM33.398,34.436 C33.269,34.332 33.100,34.281 32.890,34.281 L31.940,34.281 L31.940,35.532 L32.890,35.532 C33.100,35.532 33.269,35.480 33.398,35.377 C33.526,35.273 33.591,35.115 33.591,34.902 C33.591,34.695 33.526,34.540 33.398,34.436 ZM33.687,36.840 C33.623,36.729 33.533,36.641 33.418,36.577 C33.302,36.513 33.161,36.482 32.995,36.482 L31.940,36.482 L31.940,37.965 L32.995,37.965 C33.242,37.965 33.435,37.893 33.575,37.749 C33.714,37.606 33.784,37.430 33.784,37.223 C33.784,37.080 33.752,36.952 33.687,36.840 ZM27.346,34.997 L28.231,34.997 L28.231,38.938 L27.346,38.938 L27.346,34.997 ZM25.880,38.938 L24.358,36.998 L24.358,38.938 L23.473,38.938 L23.473,34.997 L24.358,34.997 L24.358,36.775 L25.830,34.997 L26.923,34.997 L25.313,36.872 L26.980,38.938 L25.880,38.938 ZM20.683,38.938 L20.007,38.938 L20.007,34.997 L20.683,34.997 L20.892,34.997 L22.836,34.997 L22.836,35.750 L20.892,35.750 L20.892,36.560 L22.667,36.560 L22.667,37.291 L20.892,37.291 L20.892,38.178 L22.865,38.178 L22.865,38.938 L20.892,38.938 L20.683,38.938 ZM18.361,36.759 L17.498,38.089 L16.912,38.089 L16.050,36.751 L16.050,38.938 L15.170,38.938 L15.170,34.997 L15.802,34.997 L17.208,37.165 L18.609,34.997 L19.246,34.997 L19.246,38.938 L18.361,38.938 L18.361,36.759 ZM13.551,38.223 L11.991,38.223 L11.726,38.938 L10.847,38.938 L10.807,38.938 L9.798,38.938 L8.611,37.313 L8.519,37.313 L8.519,38.938 L7.634,38.938 L7.634,34.997 L8.310,34.997 L8.519,34.997 L9.257,34.997 C9.520,34.997 9.751,35.046 9.950,35.144 C10.150,35.243 10.306,35.380 10.418,35.555 C10.531,35.730 10.587,35.931 10.587,36.158 C10.587,36.388 10.531,36.590 10.418,36.763 C10.306,36.936 10.148,37.071 9.945,37.168 C9.832,37.222 9.706,37.259 9.571,37.283 L10.821,38.904 L12.386,34.997 L13.186,34.997 L14.748,38.938 L13.812,38.938 L13.551,38.223 ZM9.703,36.169 C9.703,36.027 9.656,35.910 9.562,35.817 C9.468,35.724 9.332,35.678 9.156,35.678 L8.519,35.678 L8.519,36.665 L9.150,36.665 C9.327,36.665 9.463,36.621 9.559,36.532 C9.655,36.442 9.703,36.322 9.703,36.169 ZM12.776,36.103 L12.256,37.508 L13.290,37.508 L12.776,36.103 ZM5.982,34.997 L6.867,34.997 L6.867,38.938 L5.982,38.938 L5.982,34.997 ZM3.908,38.938 L1.734,36.167 L1.734,38.938 L0.469,38.938 L0.469,33.308 L1.734,33.308 L1.734,35.847 L3.835,33.308 L5.398,33.308 L3.097,35.987 L5.478,38.938 L3.908,38.938 Z"/>
<path fill-rule="evenodd"  fill="#fff"
 d="M72.247,28.969 L55.886,28.969 L55.280,28.969 L54.501,28.969 L54.501,-0.006 L55.886,-0.006 L55.886,27.726 L72.247,27.726 L72.247,28.969 ZM45.822,16.154 C46.933,17.497 47.489,19.111 47.489,20.997 C47.489,22.598 47.099,23.997 46.320,25.198 C45.541,26.398 44.444,27.327 43.031,27.984 C41.617,28.641 39.943,28.969 38.010,28.969 L28.747,28.969 L28.055,28.969 L27.362,28.969 L27.362,-0.006 L28.055,-0.006 L28.747,-0.006 L37.837,-0.006 C39.510,-0.006 40.960,0.280 42.187,0.852 C43.413,1.424 44.365,2.238 45.043,3.295 C45.721,4.352 46.061,5.624 46.061,7.110 C46.061,8.824 45.628,10.275 44.762,11.460 C44.056,12.427 43.078,13.148 41.855,13.650 C43.504,14.145 44.839,14.965 45.822,16.154 ZM43.031,11.546 C44.127,10.474 44.675,9.024 44.675,7.195 C44.675,5.338 44.055,3.881 42.814,2.823 C41.573,1.767 39.914,1.237 37.837,1.237 L28.747,1.237 L28.747,13.153 L38.529,13.153 C40.434,13.153 41.934,12.617 43.031,11.546 ZM38.746,14.311 L28.747,14.311 L28.747,27.726 L38.226,27.726 C40.592,27.726 42.490,27.112 43.918,25.883 C45.346,24.655 46.061,23.026 46.061,20.997 C46.061,19.683 45.750,18.526 45.130,17.525 C44.509,16.525 43.651,15.740 42.555,15.168 C41.458,14.596 40.188,14.311 38.746,14.311 ZM19.615,28.969 L1.566,14.270 L1.566,28.969 L0.180,28.969 L0.180,-0.006 L1.566,-0.006 L1.566,13.517 L19.225,-0.006 L21.346,-0.006 L3.176,13.874 L21.779,28.969 L19.615,28.969 Z"/>
</svg>