<svg
 xmlns="http://www.w3.org/2000/svg"
 xmlns:xlink="http://www.w3.org/1999/xlink"
 width="97px" height="40px">
<path fill-rule="evenodd"  fill="rgb(51, 51, 51)"
 d="M96.462,39.939 L74.653,39.939 L73.845,39.939 L72.806,39.939 L72.806,0.936 L74.653,0.936 L74.653,38.266 L96.462,38.266 L96.462,39.939 ZM61.238,22.688 C62.719,24.496 63.460,26.669 63.460,29.207 C63.460,31.362 62.940,33.246 61.902,34.862 C60.863,36.477 59.401,37.727 57.517,38.612 C55.632,39.497 53.401,39.939 50.824,39.939 L38.477,39.939 L37.554,39.939 L36.631,39.939 L36.631,0.936 L37.554,0.936 L38.477,0.936 L50.593,0.936 C52.824,0.936 54.757,1.322 56.392,2.091 C58.026,2.860 59.296,3.957 60.200,5.379 C61.103,6.803 61.556,8.514 61.556,10.514 C61.556,12.822 60.979,14.774 59.825,16.370 C58.894,17.659 57.607,18.624 55.1000,19.299 C58.186,19.966 59.933,21.095 61.238,22.688 ZM57.517,16.486 C58.978,15.043 59.709,13.091 59.709,10.630 C59.709,8.130 58.882,6.168 57.228,4.744 C55.574,3.322 53.363,2.610 50.593,2.610 L38.477,2.610 L38.477,18.649 L51.517,18.649 C54.055,18.649 56.055,17.928 57.517,16.486 ZM51.805,20.207 L38.477,20.207 L38.477,38.266 L51.113,38.266 C54.266,38.266 56.796,37.439 58.700,35.785 C60.604,34.132 61.556,31.939 61.556,29.207 C61.556,27.439 61.142,25.881 60.315,24.534 C59.488,23.188 58.344,22.131 56.882,21.361 C55.420,20.592 53.728,20.207 51.805,20.207 ZM26.303,39.939 L2.244,20.152 L2.244,39.939 L0.398,39.939 L0.398,0.936 L2.244,0.936 L2.244,19.139 L25.784,0.936 L28.611,0.936 L4.391,19.620 L29.188,39.939 L26.303,39.939 Z"/>
</svg>