<svg
 xmlns="http://www.w3.org/2000/svg"
 xmlns:xlink="http://www.w3.org/1999/xlink"
 width="97px" height="9px">
<path fill-rule="evenodd"  fill="#fa7da3"
 d="M96.044,6.783 C95.904,7.116 95.708,7.406 95.458,7.654 C95.207,7.902 94.913,8.096 94.575,8.236 C94.237,8.377 93.873,8.447 93.482,8.447 C93.081,8.447 92.712,8.377 92.374,8.236 C92.035,8.096 91.739,7.901 91.483,7.650 C91.228,7.400 91.030,7.108 90.889,6.775 C90.749,6.442 90.679,6.082 90.679,5.697 C90.679,5.306 90.749,4.945 90.889,4.615 C91.030,4.284 91.225,3.995 91.476,3.747 C91.726,3.499 92.020,3.306 92.359,3.168 C92.697,3.031 93.066,2.962 93.467,2.962 C93.862,2.962 94.229,3.031 94.568,3.168 C94.906,3.306 95.201,3.499 95.454,3.747 C95.707,3.995 95.904,4.286 96.044,4.618 C96.184,4.952 96.254,5.313 96.254,5.704 C96.254,6.090 96.184,6.449 96.044,6.783 ZM94.932,5.017 C94.857,4.814 94.749,4.638 94.609,4.491 C94.469,4.343 94.302,4.230 94.109,4.152 C93.916,4.075 93.702,4.036 93.467,4.036 C93.151,4.036 92.874,4.105 92.636,4.243 C92.399,4.380 92.214,4.573 92.084,4.821 C91.954,5.069 91.889,5.361 91.889,5.697 C91.889,5.947 91.927,6.175 92.002,6.381 C92.077,6.586 92.183,6.763 92.321,6.910 C92.459,7.058 92.625,7.172 92.821,7.252 C93.016,7.332 93.231,7.372 93.467,7.372 C93.782,7.372 94.059,7.302 94.297,7.162 C94.535,7.022 94.719,6.825 94.849,6.572 C94.980,6.319 95.045,6.027 95.045,5.697 C95.045,5.446 95.007,5.220 94.932,5.017 ZM90.191,6.816 C90.191,7.107 90.119,7.369 89.977,7.602 C89.834,7.835 89.628,8.018 89.361,8.154 C89.092,8.289 88.771,8.357 88.395,8.357 L87.298,8.357 L87.035,8.357 L86.133,8.357 L86.133,3.052 L87.035,3.052 L87.298,3.052 L88.410,3.052 C88.751,3.052 89.040,3.115 89.278,3.240 C89.516,3.365 89.697,3.533 89.823,3.743 C89.948,3.954 90.010,4.187 90.010,4.442 C90.010,4.767 89.905,5.043 89.695,5.268 C89.604,5.366 89.490,5.448 89.361,5.519 C89.543,5.608 89.699,5.718 89.826,5.854 C90.069,6.115 90.191,6.436 90.191,6.816 ZM88.658,4.115 C88.538,4.017 88.380,3.969 88.185,3.969 L87.298,3.969 L87.298,5.148 L88.185,5.148 C88.380,5.148 88.538,5.099 88.658,5.002 C88.778,4.904 88.838,4.755 88.838,4.554 C88.838,4.359 88.778,4.213 88.658,4.115 ZM88.928,6.381 C88.868,6.275 88.784,6.193 88.677,6.133 C88.569,6.072 88.437,6.042 88.282,6.042 L87.298,6.042 L87.298,7.440 L88.282,7.440 C88.513,7.440 88.693,7.372 88.823,7.237 C88.953,7.102 89.019,6.937 89.019,6.741 C89.019,6.606 88.988,6.486 88.928,6.381 ZM83.974,7.395 L81.895,7.395 L81.542,8.357 L80.318,8.357 L82.421,3.052 L83.488,3.052 L85.570,8.357 L84.322,8.357 L83.974,7.395 ZM82.942,4.541 L82.248,6.433 L83.626,6.433 L82.942,4.541 ZM76.212,8.357 L74.913,8.357 L74.913,0.778 L76.598,0.778 L76.598,6.875 L79.958,6.875 L79.958,8.357 L76.598,8.357 L76.212,8.357 ZM70.160,8.357 L68.980,8.357 L68.980,6.148 L67.094,3.076 L67.094,4.081 L65.434,4.081 L65.434,8.357 L64.254,8.357 L64.254,4.081 L62.593,4.081 L62.593,3.052 L67.079,3.052 L67.094,3.052 L68.447,3.052 L69.577,4.989 L70.708,3.052 L72.046,3.052 L70.160,6.101 L70.160,8.357 ZM60.993,8.161 C60.662,8.347 60.279,8.439 59.843,8.439 C59.407,8.439 59.023,8.347 58.690,8.161 C58.357,7.976 58.096,7.719 57.908,7.391 C57.721,7.063 57.627,6.689 57.627,6.268 L57.627,3.052 L58.814,3.052 L58.814,6.335 C58.814,6.546 58.859,6.729 58.949,6.884 C59.039,7.039 59.163,7.158 59.321,7.241 C59.479,7.324 59.653,7.365 59.843,7.365 C60.044,7.365 60.219,7.324 60.369,7.241 C60.519,7.158 60.638,7.041 60.726,6.888 C60.814,6.735 60.858,6.553 60.858,6.343 L60.858,3.052 L62.045,3.052 L62.045,6.275 C62.045,6.696 61.952,7.069 61.767,7.395 C61.581,7.721 61.324,7.976 60.993,8.161 ZM55.611,7.395 L53.531,7.395 L53.178,8.357 L51.954,8.357 L54.058,3.052 L55.125,3.052 L57.206,8.357 L55.959,8.357 L55.611,7.395 ZM54.578,4.541 L53.884,6.433 L55.263,6.433 L54.578,4.541 ZM48.633,8.357 L47.731,8.357 L47.731,3.052 L48.633,3.052 L48.911,3.052 L51.503,3.052 L51.503,4.066 L48.911,4.066 L48.911,5.156 L51.277,5.156 L51.277,6.140 L48.911,6.140 L48.911,7.335 L51.540,7.335 L51.540,8.357 L48.911,8.357 L48.633,8.357 ZM46.866,6.156 C46.866,6.571 46.764,6.945 46.560,7.278 C46.356,7.611 46.062,7.874 45.680,8.067 C45.297,8.260 44.837,8.357 44.300,8.357 L42.733,8.357 L42.357,8.357 L41.069,8.357 L41.069,0.778 L42.357,0.778 L42.733,0.778 L44.322,0.778 C44.808,0.778 45.222,0.868 45.561,1.047 C45.901,1.226 46.161,1.465 46.340,1.766 C46.518,2.066 46.608,2.399 46.608,2.764 C46.608,3.230 46.458,3.623 46.157,3.945 C46.027,4.084 45.864,4.202 45.680,4.304 C45.941,4.430 46.164,4.588 46.345,4.782 C46.692,5.154 46.866,5.612 46.866,6.156 ZM44.676,2.297 C44.504,2.158 44.279,2.088 43.1000,2.088 L42.733,2.088 L42.733,3.773 L43.1000,3.773 C44.279,3.773 44.504,3.703 44.676,3.564 C44.848,3.424 44.934,3.211 44.934,2.925 C44.934,2.646 44.848,2.437 44.676,2.297 ZM45.062,5.534 C44.977,5.383 44.857,5.265 44.703,5.179 C44.549,5.094 44.361,5.050 44.139,5.050 L42.733,5.050 L42.733,7.047 L44.139,7.047 C44.468,7.047 44.726,6.950 44.912,6.757 C45.098,6.564 45.191,6.328 45.191,6.049 C45.191,5.856 45.148,5.684 45.062,5.534 ZM36.609,3.052 L37.789,3.052 L37.789,8.357 L36.609,8.357 L36.609,3.052 ZM34.656,8.357 L32.627,5.746 L32.627,8.357 L31.447,8.357 L31.447,3.052 L32.627,3.052 L32.627,5.445 L34.588,3.052 L36.046,3.052 L33.899,5.576 L36.121,8.357 L34.656,8.357 ZM27.728,8.357 L26.826,8.357 L26.826,3.052 L27.728,3.052 L28.006,3.052 L30.598,3.052 L30.598,4.066 L28.006,4.066 L28.006,5.156 L30.373,5.156 L30.373,6.140 L28.006,6.140 L28.006,7.335 L30.636,7.335 L30.636,8.357 L28.006,8.357 L27.728,8.357 ZM24.632,5.423 L23.482,7.215 L22.701,7.215 L21.551,5.413 L21.551,8.357 L20.379,8.357 L20.379,3.052 L21.221,3.052 L23.095,5.971 L24.963,3.052 L25.812,3.052 L25.812,8.357 L24.632,8.357 L24.632,5.423 ZM18.220,7.395 L16.141,7.395 L15.788,8.357 L14.616,8.357 L14.564,8.357 L13.219,8.357 L11.636,6.170 L11.513,6.170 L11.513,8.357 L10.333,8.357 L10.333,3.052 L11.235,3.052 L11.513,3.052 L12.497,3.052 C12.848,3.052 13.156,3.118 13.421,3.251 C13.687,3.384 13.895,3.568 14.045,3.803 C14.195,4.039 14.271,4.309 14.271,4.615 C14.271,4.925 14.195,5.197 14.045,5.430 C13.895,5.663 13.684,5.845 13.414,5.975 C13.263,6.047 13.096,6.098 12.915,6.130 L14.582,8.311 L16.668,3.052 L17.734,3.052 L19.816,8.357 L18.568,8.357 L18.220,7.395 ZM13.091,4.630 C13.091,4.439 13.028,4.282 12.903,4.156 C12.778,4.031 12.597,3.969 12.362,3.969 L11.513,3.969 L11.513,5.298 L12.354,5.298 C12.590,5.298 12.771,5.238 12.899,5.118 C13.027,4.998 13.091,4.835 13.091,4.630 ZM17.188,4.541 L16.494,6.433 L17.873,6.433 L17.188,4.541 ZM8.132,3.052 L9.311,3.052 L9.311,8.357 L8.132,8.357 L8.132,3.052 ZM5.367,8.357 L2.468,4.627 L2.468,8.357 L0.783,8.357 L0.783,0.778 L2.468,0.778 L2.468,4.197 L5.270,0.778 L7.352,0.778 L4.286,4.385 L7.460,8.357 L5.367,8.357 Z"/>
</svg>